<svg width="25" height="24" viewBox="0 0 25 24" fill="none" xmlns="http://www.w3.org/2000/svg">
<path d="M22.5 21.0051C22.5 22.2598 21.3875 23.2657 20 23.2657C19.337 23.2657 18.7011 23.0276 18.2322 22.6036C17.7634 22.1797 17.5 21.6047 17.5 21.0051C17.5 19.7505 18.6125 18.7445 20 18.7445C20.663 18.7445 21.2989 18.9826 21.7678 19.4066C22.2366 19.8305 22.5 20.4055 22.5 21.0051ZM7.5 18.7445C6.1125 18.7445 5 19.7505 5 21.0051C5 21.6047 5.26339 22.1797 5.73223 22.6036C6.20107 23.0276 6.83696 23.2657 7.5 23.2657C8.8875 23.2657 10 22.2598 10 21.0051C10 19.7505 8.8875 18.7445 7.5 18.7445ZM7.75 14.9353L7.7125 15.0709C7.7125 15.2292 7.85 15.3535 8.025 15.3535H22.5V17.6142H7.5C6.83696 17.6142 6.20107 17.376 5.73223 16.952C5.26339 16.5281 5 15.9531 5 15.3535C5 14.9579 5.1125 14.5849 5.3 14.2684L7 11.4992L2.5 2.92005H0V0.659424H4.0875L5.2625 2.92005H23.75C24.4375 2.92005 25 3.4287 25 4.05037C25 4.24252 24.9375 4.43468 24.85 4.61553L20.375 11.9287C19.95 12.6182 19.125 13.0929 18.1875 13.0929H8.875L7.75 14.9353ZM9.375 10.8323H11.25V8.57163H8.2L9.375 10.8323ZM12.5 8.57163V10.8323H16.25V8.57163H12.5ZM16.25 7.44132V5.18069H12.5V7.44132H16.25ZM20.1375 8.57163H17.5V10.8323H18.75L20.1375 8.57163ZM22.225 5.18069H17.5V7.44132H20.8375L22.225 5.18069ZM6.425 5.18069L7.6 7.44132H11.25V5.18069H6.425Z" fill="#1B1B1B"/>
</svg>
